Coordinates
version=1
nRows=12
nColumns=38
inDegrees=yes

Units are S.I. units (second, meters, Newtons, ...)
Angles are in degrees.

endheader
time	pelvis_tilt	pelvis_list	pelvis_rotation	pelvis_tx	pelvis_ty	pelvis_tz	hip_flexion_r	hip_adduction_r	hip_rotation_r	knee_angle_r	ankle_angle_r	subtalar_angle_r	mtp_angle_r	hip_flexion_l	hip_adduction_l	hip_rotation_l	knee_angle_l	ankle_angle_l	subtalar_angle_l	mtp_angle_l	lumbar_extension	lumbar_bending	lumbar_rotation	arm_flex_r	arm_add_r	arm_rot_r	elbow_flex_r	pro_sup_r	wrist_flex_r	wrist_dev_r	arm_flex_l	arm_add_l	arm_rot_l	elbow_flex_l	pro_sup_l	wrist_flex_l	wrist_dev_l
      2.03000000	      3.02447731	      4.86395660	      3.09642051	      0.63641049	      1.04979558	     -0.28767942	     24.51130144	     -4.10961155	     -7.29545123	    -10.37261306	     -4.12606592	     -6.79034065	      0.00000000	    -18.35465439	      6.35724169	      1.57606818	    -14.92137346	     17.17735307	      1.58485639	      0.00000000	    -18.40073136	     -3.75887762	     -5.28254327	     -6.14809162	     -7.90219156	     55.47941774	     26.98047557	     43.25718075	      0.00000000	      0.00000000	      8.16169167	    -17.78750526	     20.79487565	     57.04578206	     43.25718075	      0.00000000	      0.00000000
      2.04000000	      2.89783883	      4.51110095	      3.44145105	      0.65149958	      1.04913649	     -0.28719749	     24.51086041	     -3.80947979	     -7.56395012	    -11.66254830	     -4.82876579	     -7.84845718	      0.00000000	    -18.45741149	      5.65608125	      1.44498077	    -15.94794683	     16.60249746	      2.50488682	      0.00000000	    -18.07451736	     -3.12945478	     -5.59901615	     -6.01208370	     -8.11483855	     55.39884630	     26.91183203	     43.27081041	      0.00000000	      0.00000000	      7.27671535	    -17.51861598	     20.84857760	     56.35723889	     43.27081041	      0.00000000	      0.00000000
      2.05000000	      2.72733145	      4.18225433	      3.65856561	      0.66651386	      1.04887034	     -0.28642626	     24.50121634	     -3.53272853	     -8.46663440	    -12.45565404	     -7.74602291	     -8.86077447	      0.00000000	    -18.43729525	      5.00334083	      1.19276896	    -17.05039346	     15.52600434	      3.45448254	      0.00000000	    -17.73784787	     -2.58256146	     -5.60473476	     -5.93891167	     -8.26429834	     55.33655655	     26.86701692	     43.28287849	      0.00000000	      0.00000000	      6.75567718	    -17.18919164	     20.87156463	     55.79846609	     43.28287849	      0.00000000	      0.00000000
      2.06000000	      2.61333015	      3.67817419	      3.86847220	      0.68157090	      1.04893111	     -0.28536549	     24.29041109	     -2.91199495	     -7.78260759	    -12.73812323	    -10.74669931	    -11.43618414	      0.00000000	    -18.05403851	      3.93244359	     -0.10096462	    -18.88421803	     14.78514913	      6.26786876	      0.00000000	    -17.46828867	     -1.85394974	     -5.45143271	     -5.93134774	     -8.40722272	     55.01932786	     26.82292214	     43.38374772	      0.00000000	      0.00000000	      6.65428427	    -16.48180651	     20.77746928	     53.58776706	     43.38374772	      0.00000000	      0.00000000
      2.07000000	      2.48178767	      3.17359477	      4.08829728	      0.69669808	      1.04960416	     -0.28433934	     24.17365356	     -2.31505085	     -7.20489419	    -13.45040965	    -11.59884574	    -12.90225885	      0.00000000	    -17.67506600	      2.97495373	     -0.68922757	    -20.57034217	     13.54105023	      8.06709627	      0.00000000	    -17.19492458	     -1.13668462	     -5.40696895	     -5.83360019	     -8.57841854	     54.85859435	     26.78032081	     43.43132897	      0.00000000	      0.00000000	      6.15803638	    -16.09520335	     20.95379512	     52.62130836	     43.43132897	      0.00000000	      0.00000000
      2.08000000	      2.33320555	      2.66630180	      4.29324879	      0.71205918	      1.05059620	     -0.28347664	     24.08696807	     -1.67028820	     -6.59933183	    -14.36195340	    -12.36263056	    -14.00712696	      0.00000000	    -17.23239889	      2.11530064	     -0.84467027	    -22.28184465	     11.78064354	      9.03382642	      0.00000000	    -16.86576086	     -0.41028447	     -5.38036393	     -5.70526548	     -8.77675112	     54.74008994	     26.73466649	     43.46605403	      0.00000000	      0.00000000	      5.55393556	    -15.66657387	     21.13050094	     51.61343051	     43.46605403	      0.00000000	      0.00000000
      2.09000000	      2.36852474	      2.24777507	      4.43990536	      0.72765358	      1.05215479	     -0.28269301	     23.81842329	     -1.16038561	     -6.26367424	    -15.49816882	    -12.91270757	    -13.99387638	      0.00000000	    -17.01272994	      1.44972176	     -0.69765265	    -23.86176445	      9.04654072	      9.07212404	      0.00000000	    -16.73264571	      0.23459489	     -5.34277123	     -5.58053801	     -9.00488614	     54.68892031	     26.68200893	     43.47163079	      0.00000000	      0.00000000	      4.79689382	    -15.32289199	     21.30226101	     51.25733770	     43.47163079	      0.00000000	      0.00000000
      2.10000000	      2.19051729	      1.66157770	      4.55624218	      0.74314371	      1.05355164	     -0.28180265	     23.62182570	     -0.28138562	     -5.01970255	    -16.28096969	    -13.30743620	    -15.73849125	      0.00000000	    -16.16667737	      0.54028695	     -1.07079745	    -26.03982555	      6.54928425	      9.71622881	      0.00000000	    -16.32456182	      1.03486060	     -5.29063716	     -5.37166434	     -9.28218225	     54.59756972	     26.70153851	     43.50293566	      0.00000000	      0.00000000	      4.20620008	    -14.73858521	     21.42856032	     49.61322381	     43.50293566	      0.00000000	      0.00000000
      2.11000000	      2.28823105	      1.21246302	      4.48654211	      0.75853758	      1.05571287	     -0.28086914	     23.21914951	      0.27502748	     -5.24980946	    -17.23984518	    -12.34372079	    -16.35046521	      0.00000000	    -15.58166213	     -0.11460595	     -1.41427245	    -28.14087663	      3.52883054	      9.58369145	      0.00000000	    -16.29025869	      1.70655517	     -5.07454415	     -5.07316905	     -9.59953705	     54.51876499	     26.67018858	     43.50905165	      0.00000000	      0.00000000	      3.46263100	    -14.30970568	     21.62085248	     49.16810315	     43.50905165	      0.00000000	      0.00000000
      2.12000000	      2.30503673	      0.79064486	      4.37677774	      0.77373384	      1.05789140	     -0.27970708	     22.78704635	      0.75814051	     -5.67617358	    -18.00535727	    -11.46607961	    -16.76320150	      0.00000000	    -14.59675259	     -0.79668028	     -1.86329822	    -30.75045657	      0.57955920	      9.57881116	      0.00000000	    -16.16778430	      2.24599866	     -4.77657428	     -4.75785838	     -9.88767024	     54.44600764	     26.67411397	     43.51536876	      0.00000000	      0.00000000	      2.71834554	    -13.90609391	     21.79246559	     48.58757231	     43.51536876	      0.00000000	      0.00000000
      2.13000000	      2.15803124	      0.31134035	      4.16386918	      0.78869694	      1.05991571	     -0.27830219	     22.40124921	      1.43876355	     -5.53509017	    -18.59601931	    -10.57555224	    -16.63103509	      0.00000000	    -13.22561401	     -1.61624435	     -2.58686967	    -33.70088626	     -1.98372508	      9.38643452	      0.00000000	    -15.87683946	      2.83228514	     -4.46555757	     -4.39532157	    -10.18378459	     54.37371918	     26.72858047	     43.52440480	      0.00000000	      0.00000000	      1.96832025	    -13.46558622	     21.96410373	     47.68378927	     43.52440480	      0.00000000	      0.00000000
      2.14000000	      1.96739467	     -0.08257692	      3.89535925	      0.80336279	      1.06199566	     -0.27686414	     22.04832200	      2.04388880	     -5.28737401	    -19.17004023	     -9.25159939	    -16.17592170	      0.00000000	    -11.65779834	     -2.24655176	     -3.03621157	    -36.77438195	     -4.23578268	      9.03655268	      0.00000000	    -15.55626824	      3.31186969	     -3.92161328	     -4.45748974	    -10.63066782	     53.38912251	     27.67273271	     43.84960978	      0.00000000	      0.00000000	      3.29337046	    -12.97338350	     27.16281838	     41.74581693	     43.84960978	      0.00000000	      0.00000000
